<svg width="19" height="19" viewBox="0 0 19 19" fill="none" xmlns="http://www.w3.org/2000/svg">
<g clip-path="url(#clip0_499_105)">
<path d="M9.5 7.12504C8.87011 7.12504 8.26602 7.37526 7.82062 7.82066C7.37522 8.26606 7.125 8.87015 7.125 9.50004C7.125 10.1299 7.37522 10.734 7.82062 11.1794C8.26602 11.6248 8.87011 11.875 9.5 11.875C10.1299 11.875 10.734 11.6248 11.1794 11.1794C11.6248 10.734 11.875 10.1299 11.875 9.50004C11.875 8.87015 11.6248 8.26606 11.1794 7.82066C10.734 7.37526 10.1299 7.12504 9.5 7.12504ZM9.5 5.54171C10.5498 5.54171 11.5566 5.95875 12.299 6.70108C13.0413 7.44341 13.4583 8.45023 13.4583 9.50004C13.4583 10.5499 13.0413 11.5567 12.299 12.299C11.5566 13.0413 10.5498 13.4584 9.5 13.4584C8.45018 13.4584 7.44336 13.0413 6.70103 12.299C5.9587 11.5567 5.54166 10.5499 5.54166 9.50004C5.54166 8.45023 5.9587 7.44341 6.70103 6.70108C7.44336 5.95875 8.45018 5.54171 9.5 5.54171ZM14.6458 5.34379C14.6458 5.60625 14.5416 5.85795 14.356 6.04353C14.1704 6.22912 13.9187 6.33337 13.6562 6.33337C13.3938 6.33337 13.1421 6.22912 12.9565 6.04353C12.7709 5.85795 12.6667 5.60625 12.6667 5.34379C12.6667 5.08134 12.7709 4.82963 12.9565 4.64405C13.1421 4.45847 13.3938 4.35421 13.6562 4.35421C13.9187 4.35421 14.1704 4.45847 14.356 4.64405C14.5416 4.82963 14.6458 5.08134 14.6458 5.34379ZM9.5 3.16671C7.54141 3.16671 7.22158 3.17225 6.31037 3.21262C5.6897 3.24192 5.27329 3.32504 4.88695 3.47546C4.54337 3.60846 4.29558 3.76758 4.03195 4.032C3.78417 4.2714 3.59365 4.56367 3.47462 4.887C3.3242 5.27492 3.24108 5.69054 3.21258 6.31042C3.17141 7.18442 3.16666 7.49 3.16666 9.50004C3.16666 11.4586 3.1722 11.7785 3.21258 12.6897C3.24187 13.3095 3.325 13.7268 3.47462 14.1123C3.6092 14.4567 3.76754 14.7045 4.03037 14.9673C4.29716 15.2333 4.54495 15.3924 4.88537 15.5238C5.27645 15.675 5.69287 15.759 6.31037 15.7875C7.18437 15.8286 7.48995 15.8334 9.5 15.8334C11.4586 15.8334 11.7784 15.8278 12.6896 15.7875C13.3087 15.7582 13.7259 15.675 14.1122 15.5254C14.455 15.3916 14.7044 15.2325 14.9672 14.9697C15.234 14.7029 15.3932 14.4551 15.5246 14.1147C15.675 13.7244 15.7589 13.3072 15.7874 12.6897C15.8286 11.8157 15.8333 11.5101 15.8333 9.50004C15.8333 7.54146 15.8278 7.22162 15.7874 6.31042C15.7581 5.69133 15.675 5.27333 15.5246 4.887C15.4053 4.564 15.2151 4.27184 14.968 4.032C14.7287 3.78409 14.4364 3.59355 14.113 3.47467C13.7251 3.32425 13.3087 3.24112 12.6896 3.21262C11.8156 3.17146 11.51 3.16671 9.5 3.16671ZM9.5 1.58337C11.651 1.58337 11.9193 1.59129 12.7632 1.63087C13.6064 1.67046 14.1803 1.80267 14.6854 1.999C15.2079 2.20008 15.6481 2.47242 16.0882 2.91179C16.4908 3.30754 16.8023 3.78626 17.001 4.31462C17.1966 4.81892 17.3296 5.39367 17.3692 6.23679C17.4064 7.08071 17.4167 7.34908 17.4167 9.50004C17.4167 11.651 17.4087 11.9194 17.3692 12.7633C17.3296 13.6064 17.1966 14.1804 17.001 14.6855C16.8029 15.2141 16.4913 15.6929 16.0882 16.0883C15.6924 16.4907 15.2137 16.8022 14.6854 17.0011C14.1811 17.1966 13.6064 17.3296 12.7632 17.3692C11.9193 17.4064 11.651 17.4167 9.5 17.4167C7.34904 17.4167 7.08066 17.4088 6.23675 17.3692C5.39362 17.3296 4.81966 17.1966 4.31458 17.0011C3.786 16.8028 3.3072 16.4912 2.91175 16.0883C2.50911 15.6926 2.19761 15.2139 1.99895 14.6855C1.80262 14.1812 1.67041 13.6064 1.63083 12.7633C1.59362 11.9194 1.58333 11.651 1.58333 9.50004C1.58333 7.34908 1.59124 7.08071 1.63083 6.23679C1.67041 5.39287 1.80262 4.81971 1.99895 4.31462C2.19706 3.78593 2.50863 3.30709 2.91175 2.91179C3.30732 2.50902 3.78608 2.19749 4.31458 1.999C4.81966 1.80267 5.39283 1.67046 6.23675 1.63087C7.08066 1.59367 7.34904 1.58337 9.5 1.58337Z" fill="#E0BEA2"/>
</g>
<defs>
<clipPath id="clip0_499_105">
<rect width="19" height="19" fill="white"/>
</clipPath>
</defs>
</svg>
