<svg width="19" height="19" viewBox="0 0 19 19" fill="none" xmlns="http://www.w3.org/2000/svg">
<g clip-path="url(#clip0_499_108)">
<path d="M9.50001 15.8334C11.1797 15.8334 12.7906 15.1661 13.9784 13.9784C15.1661 12.7907 15.8333 11.1797 15.8333 9.50004C15.8333 7.82034 15.1661 6.20943 13.9784 5.0217C12.7906 3.83397 11.1797 3.16671 9.50001 3.16671C7.82031 3.16671 6.2094 3.83397 5.02167 5.0217C3.83394 6.20943 3.16668 7.82034 3.16668 9.50004C3.16668 11.1797 3.83394 12.7907 5.02167 13.9784C6.2094 15.1661 7.82031 15.8334 9.50001 15.8334ZM9.50001 17.4167C5.12764 17.4167 1.58334 13.8724 1.58334 9.50004C1.58334 5.12767 5.12764 1.58337 9.50001 1.58337C13.8724 1.58337 17.4167 5.12767 17.4167 9.50004C17.4167 13.8724 13.8724 17.4167 9.50001 17.4167ZM7.03793 10.4263L5.06034 9.80958C4.63284 9.67896 4.63047 9.38446 5.15614 9.17308L12.8614 6.19642C13.3087 6.01433 13.5621 6.24471 13.4172 6.82183L12.1054 13.0127C12.0136 13.4536 11.7483 13.5589 11.3802 13.3555L9.36068 11.8608L8.41939 12.7696C8.3228 12.863 8.24443 12.943 8.09559 12.9628C7.94755 12.9834 7.82564 12.939 7.73618 12.6936L7.04743 10.4207L7.03793 10.4263Z" fill="#E0BEA2"/>
</g>
<defs>
<clipPath id="clip0_499_108">
<rect width="19" height="19" fill="white"/>
</clipPath>
</defs>
</svg>
