<svg width="25" height="25" viewBox="0 0 25 25" fill="none" xmlns="http://www.w3.org/2000/svg">
<g clip-path="url(#clip0_267_1139)">
<path d="M12.5 22.5C15.1522 22.5 17.6957 21.4464 19.5711 19.5711C21.4464 17.6957 22.5 15.1522 22.5 12.5C22.5 9.84783 21.4464 7.3043 19.5711 5.42893C17.6957 3.55357 15.1522 2.5 12.5 2.5C9.84783 2.5 7.3043 3.55357 5.42893 5.42893C3.55357 7.3043 2.5 9.84783 2.5 12.5C2.5 15.1522 3.55357 17.6957 5.42893 19.5711C7.3043 21.4464 9.84783 22.5 12.5 22.5ZM12.5 25C5.59625 25 0 19.4037 0 12.5C0 5.59625 5.59625 0 12.5 0C19.4037 0 25 5.59625 25 12.5C25 19.4037 19.4037 25 12.5 25ZM8.6125 13.9625L5.49 12.9887C4.815 12.7825 4.81125 12.3175 5.64125 11.9837L17.8075 7.28375C18.5137 6.99625 18.9137 7.36 18.685 8.27125L16.6137 18.0462C16.4688 18.7425 16.05 18.9088 15.4687 18.5875L12.28 16.2275L10.7937 17.6625C10.6412 17.81 10.5175 17.9363 10.2825 17.9675C10.0487 18 9.85625 17.93 9.715 17.5425L8.6275 13.9537L8.6125 13.9625Z" fill="#E0BEA2"/>
</g>
<defs>
<clipPath id="clip0_267_1139">
<rect width="25" height="25" fill="white"/>
</clipPath>
</defs>
</svg>
