<svg width="17" height="17" viewBox="0 0 17 17" fill="none" xmlns="http://www.w3.org/2000/svg">
<g clip-path="url(#clip0_243_860)">
<path d="M8.50061 3.14671C10.2623 1.56499 12.9848 1.61749 14.682 3.31771C16.3785 5.01868 16.437 7.72763 14.859 9.49459L8.49911 15.8635L2.14073 9.49459C0.562763 7.72763 0.622012 5.01418 2.31773 3.31771C4.01645 1.61974 6.73365 1.56274 8.50061 3.14671ZM13.62 4.37744C12.495 3.25096 10.6801 3.20521 9.50259 4.26269L8.50136 5.16118L7.49938 4.26344C6.31816 3.20446 4.50694 3.25096 3.37896 4.37894C2.26148 5.49642 2.20523 7.28514 3.23496 8.46711L8.49986 13.7403L13.7648 8.46786C14.7952 7.28514 14.739 5.49867 13.62 4.37744Z" fill="#E0BEA2"/>
</g>
<defs>
<clipPath id="clip0_243_860">
<rect width="17" height="17" fill="white"/>
</clipPath>
</defs>
</svg>
